<?xml version="1.0" standalone="no"?>
<!DOCTYPE svg PUBLIC "-//W3C//DTD SVG 20010904//EN"
 "http://www.w3.org/TR/2001/REC-SVG-20010904/DTD/svg10.dtd">
<svg version="1.0" xmlns="http://www.w3.org/2000/svg"
 width="434.000000pt" height="233.000000pt" viewBox="0 0 434.000000 233.000000"
 preserveAspectRatio="xMidYMid meet">
<metadata>
Created by potrace 1.11, written by Peter Selinger 2001-2013
</metadata>
<g transform="translate(0.000000,233.000000) scale(0.100000,-0.100000)"
fill="#000000" stroke="none">
<path d="M1150 2064 c-82 -10 -260 -46 -320 -66 -96 -30 -251 -114 -325 -175
-94 -77 -170 -174 -226 -288 -60 -123 -88 -229 -96 -360 -5 -94 -4 -106 28
-200 74 -224 269 -434 487 -525 344 -145 806 -36 1310 307 92 63 93 63 163 63
76 0 119 -16 179 -67 19 -15 50 -39 71 -53 20 -14 79 -54 130 -89 119 -82 248
-142 369 -172 82 -20 120 -23 285 -24 175 0 199 2 299 28 387 98 616 348 646
707 9 96 0 215 -20 292 -24 88 -91 201 -164 277 -91 94 -171 151 -288 205
-120 56 -200 82 -326 106 -166 32 -277 25 -643 -40 -304 -55 -472 -80 -533
-80 -72 0 -249 29 -456 75 -282 63 -477 90 -570 79z m382 -678 c31 -7 80 -28
108 -46 101 -65 93 -105 -33 -172 -123 -66 -356 -78 -469 -26 -113 52 -138
110 -73 167 19 17 49 38 65 46 80 41 291 58 402 31z m1574 3 c109 -20 204 -89
204 -149 0 -36 -40 -71 -117 -101 -88 -34 -276 -39 -375 -9 -40 12 -91 35
-114 51 -70 48 -70 90 -1 137 56 38 91 51 178 67 94 17 150 18 225 4z"/>
</g>
</svg>
