<?xml version="1.0" encoding="UTF-8" standalone="no"?>
<!-- Created with Inkscape (http://www.inkscape.org/) -->

<svg
   xmlns:dc="http://purl.org/dc/elements/1.1/"
   xmlns:cc="http://creativecommons.org/ns#"
   xmlns:rdf="http://www.w3.org/1999/02/22-rdf-syntax-ns#"
   xmlns:svg="http://www.w3.org/2000/svg"
   xmlns="http://www.w3.org/2000/svg"
   xmlns:sodipodi="http://sodipodi.sourceforge.net/DTD/sodipodi-0.dtd"
   xmlns:inkscape="http://www.inkscape.org/namespaces/inkscape"
   width="210mm"
   height="297mm"
   viewBox="0 0 744.09448819 1052.3622047"
   id="svg6020"
   version="1.1"
   inkscape:version="0.91 r13725"
   sodipodi:docname="fleecefinder.svg">
  <defs
     id="defs6022" />
  <sodipodi:namedview
     id="base"
     pagecolor="#ffffff"
     bordercolor="#666666"
     borderopacity="1.0"
     inkscape:pageopacity="0.0"
     inkscape:pageshadow="2"
     inkscape:zoom="1.4"
     inkscape:cx="316.36231"
     inkscape:cy="769.87286"
     inkscape:document-units="px"
     inkscape:current-layer="layer1"
     showgrid="false"
     inkscape:window-width="1920"
     inkscape:window-height="1017"
     inkscape:window-x="1912"
     inkscape:window-y="-8"
     inkscape:window-maximized="1" />
  <metadata
     id="metadata6025">
    <rdf:RDF>
      <cc:Work
         rdf:about="">
        <dc:format>image/svg+xml</dc:format>
        <dc:type
           rdf:resource="http://purl.org/dc/dcmitype/StillImage" />
        <dc:title></dc:title>
      </cc:Work>
    </rdf:RDF>
  </metadata>
  <g
     inkscape:label="Layer 1"
     inkscape:groupmode="layer"
     id="layer1">
    <path
       style="fill:none;fill-rule:evenodd;stroke:#000000;stroke-width:1px;stroke-linecap:butt;stroke-linejoin:miter;stroke-opacity:1"
       d="m 28.571428,133.07649 0,-114.285713 65,0 -0.71429,20.71428 -47.85714,0 -0.71428,18.57143 20.71428,0 0,14.28572 -20.71428,-0.71429 0,57.857143 -16.42858,0.71429 -2.14285,2.85714 z"
       id="path6042"
       inkscape:connector-curvature="0" />
    <path
       style="opacity:1;fill:#000000;fill-opacity:0.94117647;stroke:#000000;stroke-opacity:1"
       id="path6048"
       d="m 107.75787,291.73537 c 1.98237,-1.78947 3.54759,-3.95094 5.09391,-6.11052 0.87081,-1.28318 1.64129,-2.61603 2.30768,-4.01449 0.51762,-1.34421 0.92524,-2.73977 1.20428,-4.15336 0.31668,-2.0997 0.67723,-4.18829 0.87502,-6.3035 0.0622,-2.36618 0.35719,-4.71022 0.61013,-7.06064 0.2239,-2.08099 0.27453,-4.17442 0.29707,-6.26555 0.004,-1.79382 0.007,-3.58766 0.002,-5.38149 -0.12083,-1.74955 -0.41153,-3.48064 -0.57305,-5.22704 -0.0428,-1.55076 -0.21101,-3.07801 -0.43786,-4.61095 -0.2454,-1.58837 -0.34592,-3.19229 -0.40206,-4.79681 -0.14284,-1.4923 0.12957,-2.95215 0.36003,-4.41786 0.25356,-1.38463 -0.0325,-2.78197 -0.17924,-4.1628 -0.36112,-1.73354 -0.59528,-3.4857 -0.75737,-5.248 -0.004,-1.77756 0.17828,-3.56347 0.56799,-5.29809 0.33696,-1.56615 0.79039,-3.10774 1.29693,-4.627 0.36255,-1.41917 1.03532,-2.71991 1.61981,-4.05343 0.739,-2.038 1.95604,-3.80349 3.23868,-5.52989 1.3871,-1.73882 2.8009,-3.45736 4.24236,-5.15167 3.06471,-3.11555 7.21732,-4.74145 11.02138,-6.8808 0.35417,-0.19919 0.78234,-0.22566 1.15847,-0.37941 1.26937,-0.55002 2.6959,-0.38597 3.98704,-0.79374 1.34857,-0.3202 2.69201,-0.66387 4.05373,-0.93203 1.50086,-0.50745 3.0461,-0.98494 4.64087,-0.86046 1.43721,0.0142 2.63236,0.55495 3.84914,1.24236 1.02638,0.59859 1.79896,1.49621 2.66105,2.28891 0,0 -9.04563,5.56432 -9.04563,5.56432 l 0,0 c -0.76447,-0.77514 -1.54051,-1.53919 -2.5179,-2.04829 -1.09793,-0.59307 -2.26276,-0.85495 -3.51831,-0.81016 -1.54235,0.16239 -3.00506,0.64944 -4.50323,1.02767 -1.35742,0.31577 -2.7129,0.63868 -4.07062,0.95304 -1.32589,0.17916 -2.65414,0.3677 -3.88495,0.92867 -3.26562,1.25134 -8.84439,4.98744 7.48954,-4.53065 0.16844,-0.0982 -0.33968,0.19379 -0.49464,0.3121 -1.78103,1.35976 0.91749,-0.52433 -1.0577,0.82739 -1.58414,1.57613 -2.87391,3.4287 -4.36405,5.09289 -1.27062,1.63429 -2.5558,3.30337 -3.25654,5.27556 -0.59775,1.29602 -1.23312,2.59314 -1.65919,3.95327 -0.49652,1.49707 -1.01466,2.99424 -1.34554,4.53795 -0.38663,1.65235 -0.6591,3.30852 -0.72812,5.01259 0.13266,1.75635 0.33374,3.50756 0.7751,5.21716 0.14275,1.4598 0.4728,2.93612 0.29875,4.40043 -0.20304,1.41563 -0.58185,2.80951 -0.4483,4.25066 0.0366,1.56823 0.10307,3.13816 0.33078,4.69232 0.23275,1.55429 0.49996,3.08848 0.47471,4.66788 0.1346,1.77803 0.38455,3.54096 0.6039,5.30985 -0.001,1.80195 0.0106,3.60395 -0.0182,5.40578 -0.0303,2.12063 -0.0448,4.24448 -0.2515,6.35724 -0.26357,2.34596 -0.63875,4.68028 -0.64991,7.04684 -0.14796,2.13988 -0.49596,4.24032 -0.77731,6.36321 -0.22856,1.49568 -0.6389,2.92951 -1.07432,4.37538 -0.61047,1.50204 -1.40713,2.88048 -2.28971,4.23754 -1.51622,2.18236 -3.07483,4.36777 -4.96008,6.25029 0,0 -9.79526,4.05733 -9.79526,4.05733 z"
       inkscape:connector-curvature="0" />
    <path
       style="opacity:1;fill:#000000;fill-opacity:0.94117647;stroke:#000000;stroke-opacity:1"
       id="path6050"
       d="m 119.82978,230.35286 c 1.32919,-1.46428 2.7918,-2.81969 4.41497,-3.95178 7.11153,-5.3918 7.66619,-4.91601 13.19619,-6.71969 1.23723,-0.45755 2.39741,-0.24805 3.6435,-0.0225 1.05098,0.44515 2.10566,0.81712 3.01222,1.52579 0.95225,0.55636 1.58074,1.41647 2.25041,2.25875 0.41608,0.63114 0.22265,0.29871 0.5759,0.99984 0,0 -9.24006,5.25925 -9.24006,5.25925 l 0,0 c -0.27525,-0.56095 -0.11855,-0.2898 -0.47115,-0.81284 -0.5977,-0.77591 -1.22862,-1.48904 -2.08757,-1.9954 -0.84038,-0.51844 -1.76952,-0.91113 -2.73424,-1.12526 -1.1566,-0.15709 -2.24289,-0.002 -3.34001,0.41856 -0.63476,0.20279 -1.2926,0.33767 -1.91971,0.56287 -3.27846,1.17735 -8.36155,5.92259 6.96518,-4.20847 -1.6351,1.06062 -3.14653,2.24836 -4.49936,3.66142 0,0 -9.76627,4.14946 -9.76627,4.14946 z"
       inkscape:connector-curvature="0" />
    <path
       style="opacity:1;fill:#000000;fill-opacity:0.94117647;stroke:#000000;stroke-opacity:1"
       id="path6052"
       d="m 178.83569,176.52448 c -1.00266,2.27131 -1.77267,4.62764 -2.2892,7.05419 -0.35092,1.76507 -0.39396,3.56686 -0.41572,5.35995 -0.003,1.68707 0.0101,3.37399 -0.0118,5.06096 0.029,2.40062 -0.0947,4.80714 0.0746,7.20352 0.15461,2.01346 0.58142,3.99105 1.02898,5.95629 0.57645,2.48743 1.14737,4.97554 1.61281,7.4865 0.66424,3.42601 1.37315,6.84291 1.94089,10.2867 0.63222,3.67097 1.40347,7.31435 2.24777,10.94129 0.54654,2.32145 0.7891,4.69228 0.92508,7.06819 0.0863,1.69528 0.0662,3.393 0.0639,5.08971 0.0968,1.75399 -0.19833,3.48229 -0.41981,5.21444 -0.27982,3.06591 -1.08759,6.05353 -1.7921,9.04178 -0.47821,2.55875 -1.23637,5.02301 -2.3416,7.37511 -0.97913,1.88438 -2.19264,3.6274 -3.30124,5.43443 -0.59708,1.04756 -1.37325,1.96123 -2.13354,2.88807 -0.87494,1.12094 -1.76799,2.20698 -2.79428,3.19351 -0.91252,0.88875 -1.95155,1.60982 -3.01961,2.29516 -3.47408,2.98421 -7.85445,4.58804 -11.72074,7.0226 -0.6759,0.35765 -1.42223,0.39255 -2.09584,0.741 0,0 8.35764,-6.56786 8.35764,-6.56786 l 0,0 c 0.70685,-0.20481 1.39402,-0.4489 2.0281,-0.83146 3.56818,-1.53886 0.20541,-0.11149 -8.13632,4.78706 -0.14796,0.0869 0.32172,-0.12332 0.47056,-0.20871 0.65487,-0.37569 0.19664,-0.20331 0.77996,-0.70136 0.13577,-0.11592 0.29887,-0.19536 0.44831,-0.29303 0.93795,-0.87775 2.19797,-1.29672 3.06423,-2.26752 1.12449,-0.83727 2.01928,-1.88112 2.84378,-3.00292 0.75055,-0.93047 1.58945,-1.7781 2.20374,-2.80881 1.23259,-1.70221 2.27239,-3.55226 3.40824,-5.32162 1.13991,-2.30253 2.08018,-4.68125 2.54842,-7.22301 0.70605,-2.9226 1.45227,-5.85925 1.70917,-8.8629 0.1783,-1.70074 0.55507,-3.3829 0.46163,-5.10161 0.007,-1.68407 0.0106,-3.36851 -0.0238,-5.0523 -0.0814,-2.3303 -0.26725,-4.65875 -0.76994,-6.94147 -0.79612,-3.6638 -1.49436,-7.34702 -2.20202,-11.02906 -0.59626,-3.42337 -1.30706,-6.82518 -2.00666,-10.22838 -0.4833,-2.48625 -1.03748,-4.95576 -1.64532,-7.41409 -0.49736,-2.00697 -0.91138,-4.04191 -1.09989,-6.10276 -0.21268,-2.41733 -0.0296,-4.85231 -0.10971,-7.27673 -0.0308,-1.68484 -0.0415,-3.37007 -0.0324,-5.0552 0.0206,-1.85587 0.0454,-3.72347 0.35975,-5.55736 0.48754,-2.46149 1.23734,-4.85173 2.17137,-7.18122 0,0 9.61261,-4.47108 9.61261,-4.47108 z"
       inkscape:connector-curvature="0" />
    <path
       style="opacity:1;fill:#000000;fill-opacity:0.94117647;stroke:#000000;stroke-opacity:1"
       id="path6054"
       d="m 210.79523,249.65864 c 2.05843,0.90493 4.19498,1.18576 6.41699,1.1893 1.44095,0.0154 2.88585,-0.43887 4.05451,-1.27928 3.68931,-2.14334 -4.36078,2.53429 -7.99279,4.60234 -0.17978,0.10236 0.35029,-0.22157 0.51287,-0.3495 0.53553,-0.42141 0.95313,-0.93835 1.3723,-1.46905 0.79605,-0.88206 1.23424,-1.99396 1.69522,-3.07191 0.41913,-1.16286 0.54904,-2.41045 0.49307,-3.63925 -0.13252,-1.33696 -0.55811,-2.58536 -1.49756,-3.55805 -1.03655,-0.78309 -2.34416,-0.83516 -3.5919,-0.89808 -1.46084,-0.0779 -2.86741,0.40164 -4.24127,0.83411 1.66659,-1.05163 -3.42277,1.95632 -1.71102,0.98002 14.41778,-8.22323 10.2362,-6.21484 7.18764,-3.94495 -2.387,1.65688 -4.27604,3.90679 -6.12529,6.1204 -1.85837,2.52333 -3.62378,5.1406 -4.99255,7.96485 -0.96101,2.20282 -1.54277,4.54004 -1.68648,6.93617 -0.0969,2.48356 0.49378,4.89424 1.09357,7.283 0.4511,1.9858 0.99616,3.92326 1.91854,5.7407 0.39024,1.1672 1.31997,1.89843 2.14314,2.74961 0.8818,0.86825 1.85593,1.5384 2.97261,2.06867 1.22914,0.32317 2.4375,0.70875 3.67221,1.01925 1.28666,0.38781 2.50734,0.11104 3.79017,-0.0889 1.57339,-1e-4 3.0573,-0.42819 4.58932,-0.68954 1.30019,-0.20246 2.55713,-0.58904 3.85917,-0.80595 0,0 -8.45497,6.38575 -8.45497,6.38575 l 0,0 c -1.28631,0.2692 -2.55606,0.61389 -3.85712,0.81072 -1.53058,0.32878 -3.07427,0.46773 -4.62712,0.65493 -1.37445,0.18102 -2.71846,0.16952 -4.05552,-0.25713 -1.27007,-0.37706 -2.58091,-0.64793 -3.78699,-1.20489 -1.17008,-0.63994 -2.22101,-1.40034 -3.15844,-2.35539 -0.9087,-0.9144 -1.88339,-1.77808 -2.30394,-3.04244 -0.92527,-1.9052 -1.47513,-3.91978 -1.92645,-5.98754 -0.65412,-2.47055 -1.32354,-4.95688 -1.27218,-7.53518 0.0493,-2.51466 0.60912,-4.98198 1.52747,-7.32366 1.31606,-2.93168 3.14229,-5.57594 4.94305,-8.22881 1.79673,-2.24095 3.64797,-4.51164 5.88433,-6.3274 0.43425,-0.29181 0.80717,-0.67228 1.25552,-0.94193 3.14849,-1.89358 7.4579,-5.01435 11.5128,-6.45976 1.45759,-0.41789 2.96046,-0.68114 4.48127,-0.51729 1.48366,0.16906 2.92603,0.47811 4.03267,1.56292 1.02362,1.18887 1.62985,2.58895 1.83105,4.15263 0.17893,1.35109 0.0367,2.72821 -0.26818,4.05502 -0.37327,1.18666 -0.92058,2.35081 -1.55926,3.41135 -1.15421,1.30426 0.29129,-0.3773 -0.83701,1.10444 -2.67369,3.51123 -7.35124,4.71888 -11.08297,6.92654 -1.40219,0.582 -2.81979,0.94234 -4.35657,0.79759 -2.29659,-0.12275 -4.49619,-0.63485 -6.64874,-1.45467 0,0 8.79483,-5.91977 8.79483,-5.91977 z"
       inkscape:connector-curvature="0" />
    <path
       style="opacity:1;fill:#000000;fill-opacity:0.94117647;stroke:#000000;stroke-opacity:1"
       id="path6056"
       d="m 249.3343,247.37938 c 1.9981,0.52484 4.03549,0.96562 6.08532,0.53622 1.06721,-0.2562 0.49278,-0.0549 1.41252,-0.50624 0.20031,-0.0983 0.79785,-0.39884 0.60445,-0.28757 -14.89671,8.57005 -10.69217,6.28735 -7.66737,4.28362 0.84207,-0.60538 1.44774,-1.39984 1.9908,-2.27072 0.49949,-1.13497 0.93749,-2.30964 1.07446,-3.54697 0.0809,-1.2387 -0.2646,-2.31586 -0.84666,-3.3811 -0.59939,-0.75695 -1.4088,-1.26344 -2.33695,-1.51018 -1.25489,-0.23284 -2.53851,-0.22387 -3.81018,-0.2333 -1.16912,0.21259 -2.22118,0.57902 -3.22573,1.21065 15.62071,-9.65611 8.25763,-5.1233 5.12586,-1.98842 -2.44506,2.58066 -4.12103,5.71212 -5.72297,8.85099 -1.27723,2.38679 -1.91869,4.9595 -2.21038,7.62888 -0.18797,1.88604 -0.16148,3.76673 0.0392,5.64743 0.34768,2.57581 1.04396,5.04061 1.95693,7.46588 0.67033,1.7374 1.47014,3.37712 2.83773,4.66382 1.11747,1.07673 2.53886,1.6482 3.92096,2.28255 1.43873,0.51949 2.92496,0.93159 4.42606,1.23372 1.38704,0.0672 2.71254,-0.18929 4.03891,-0.54166 0.23041,-0.0507 0.46082,-0.10142 0.69123,-0.15213 0,0 -8.4378,6.42464 -8.4378,6.42464 l 0,0 c -0.22821,0.054 -0.45643,0.108 -0.68464,0.162 -1.41077,0.30385 -2.87485,0.41754 -4.30112,0.14143 -1.54809,-0.36521 -3.1047,-0.76185 -4.56119,-1.41156 -1.49237,-0.66993 -2.93846,-1.44641 -4.11945,-2.60253 -1.40843,-1.46304 -2.31677,-3.19036 -3.00437,-5.09743 -0.9113,-2.50171 -1.68097,-5.02947 -2.1095,-7.66475 -0.261,-1.95137 -0.34055,-3.89751 -0.13387,-5.86334 0.27504,-2.79216 0.81863,-5.51312 2.13781,-8.02501 1.62646,-3.1489 3.19028,-6.36186 5.51463,-9.07426 3.51766,-4.0702 7.86982,-6.18227 12.88054,-8.72832 1.12312,-0.47563 2.29845,-0.80821 3.53174,-0.78233 1.35317,0.0345 2.73175,0.0616 4.02598,0.504 1.09072,0.47225 2.06822,1.17746 2.74769,2.1682 0.66522,1.22497 1.1093,2.47193 1.09858,3.89097 0.0297,1.38965 -0.43882,2.63223 -0.86122,3.9363 -0.35361,0.92487 -1.03933,2.05941 -1.82453,2.66425 -0.41417,0.45553 -0.33901,0.44264 -0.87853,0.75528 -3.82798,2.21824 -7.34825,5.43719 -11.80158,6.07859 -2.15384,0.10425 -4.24389,-0.35191 -6.3335,-0.8399 0,0 8.73013,-6.0217 8.73013,-6.0217 z"
       inkscape:connector-curvature="0" />
    <path
       style="opacity:1;fill:#000000;fill-opacity:0.94117647;stroke:#000000;stroke-opacity:1"
       id="path6058"
       d="m 293.55848,241.05503 c -2.15194,-0.30226 -4.32201,-0.44127 -6.49185,-0.52952 -1.7963,0.0791 -3.50761,0.55724 -5.24904,0.94561 -1.54012,0.43869 -2.95655,1.17368 -4.4189,1.80535 -3.07129,1.97928 -7.76243,4.42312 7.27614,-4.14399 0.18926,-0.10782 -0.36891,0.2324 -0.5442,0.36169 -0.0946,0.0697 -0.85184,0.70015 -0.96125,0.79093 -1.01005,0.8278 -1.82882,1.72712 -2.48075,2.85759 -0.70528,1.31299 -1.2487,2.70002 -1.83425,4.06801 -0.6227,1.56878 -1.14355,3.19164 -1.56412,4.82789 -0.33873,1.41667 -0.38456,2.8749 -0.42822,4.32365 -0.0989,1.48873 0.003,2.93993 0.28044,4.4 0.22813,1.15986 0.60133,2.29351 0.94564,3.4257 0.4196,1.31374 0.75829,2.6601 1.26822,3.94256 0.49954,1.40218 1.42767,2.56546 2.30435,3.74398 0.88197,1.06331 1.83212,2.05959 2.95088,2.87575 1.1481,0.64066 2.20407,1.41824 3.43661,1.89633 1.07123,0.66327 2.29323,0.98957 3.48205,1.37329 1.37669,0.44029 2.61354,0.45459 4.01688,0.2254 1.44629,-0.24094 2.83245,-0.76473 4.21984,-1.23043 0,0 -8.3672,6.50401 -8.3672,6.50401 l 0,0 c -1.41668,0.47728 -2.86674,0.90764 -4.35913,1.05719 -1.46322,0.10286 -2.90009,-0.12506 -4.28981,-0.59844 -1.20991,-0.41373 -2.4246,-0.8005 -3.53499,-1.45204 -1.25123,-0.59878 -2.41071,-1.35878 -3.57026,-2.11711 -1.15522,-0.92352 -2.19217,-1.95861 -3.09109,-3.1363 -0.92598,-1.25166 -1.92671,-2.4841 -2.4619,-3.96701 -0.52644,-1.30096 -0.87761,-2.66967 -1.30814,-4.00453 -0.39374,-1.15811 -0.73717,-2.35453 -1.00636,-3.54338 -0.29044,-1.52997 -0.47846,-3.03858 -0.36098,-4.60314 0.007,-1.51364 0.0428,-3.03513 0.32497,-4.52705 0.3724,-1.70674 0.99368,-3.33822 1.47387,-5.01321 0.65093,-1.34383 1.0767,-2.78615 1.82873,-4.08088 0.48759,-1.27091 1.17222,-2.40342 2.30955,-3.19459 3.20748,-3.65782 8.09295,-5.37535 12.34658,-7.64068 1.46547,-0.66868 2.96298,-1.28043 4.5392,-1.63727 1.77437,-0.40844 3.57151,-0.76243 5.40343,-0.70077 2.19616,0.13128 4.38669,0.33003 6.5739,0.56744 0,0 -8.65884,6.12797 -8.65884,6.12797 z"
       inkscape:connector-curvature="0" />
    <path
       style="opacity:1;fill:#000000;fill-opacity:0.94117647;stroke:#000000;stroke-opacity:1"
       id="path6060"
       d="m 328.50683,253.39178 c 2.12215,-0.13166 4.09713,-0.98907 6.03477,-1.79625 3.14799,-1.92454 7.97461,-4.50722 -7.06025,4.03397 -0.633,0.3596 0.89148,-0.64354 1.52554,-1.17939 0.82563,-0.70139 1.46868,-1.54513 2.03592,-2.46114 0.5912,-0.94872 0.99874,-1.91169 1.2011,-3.01087 0.15638,-1.32918 0.23605,-2.67897 0.12913,-4.01445 -0.0917,-1.2934 -0.72718,-2.32159 -1.47304,-3.32966 -0.79121,-0.87092 -1.73712,-1.58584 -2.95396,-1.56538 -0.20711,-0.30616 -2.34818,0.77919 -2.16457,0.67497 8.56733,-4.86264 11.22709,-6.53944 7.77541,-4.38079 -1.72469,1.23262 -3.3814,2.5566 -5.07076,3.8364 -2.15364,1.51742 -3.62104,3.74186 -5.08149,5.88858 -2.01182,2.91783 -3.42421,6.15974 -4.74255,9.43114 -1.0205,2.66155 -1.59533,5.47217 -2.05127,8.27856 -0.32599,1.8548 -0.4362,3.69203 -0.16852,5.55316 0.12449,1.11178 0.53773,2.15734 1.01519,3.15892 0.53849,0.93598 1.2979,1.76416 2.10453,2.48061 1.0151,0.58272 2.13279,0.95418 3.28014,1.17879 1.38415,0.30844 2.7468,-0.0841 4.12224,-0.26257 1.45999,-0.024 2.85206,-0.35723 4.27784,-0.62017 0.24116,-0.0352 0.48728,-0.0455 0.72349,-0.1055 0.40761,-0.10355 0.78317,-0.30942 1.1857,-0.43123 0.60685,-0.18366 1.15994,-0.2461 1.73322,-0.52538 0.70959,-0.27657 0.36271,-0.11054 1.03867,-0.50215 0,0 -8.30411,6.62154 -8.30411,6.62154 l 0,0 c -0.75263,0.29599 -0.38252,0.15668 -1.1098,0.41931 -1.24269,0.3086 -2.44988,0.7514 -3.72569,0.91504 -1.42931,0.27989 -2.86625,0.42129 -4.31383,0.57365 -1.46034,0.19949 -2.906,0.37872 -4.35183,-0.0471 -1.27299,-0.34664 -2.56232,-0.79381 -3.60115,-1.63185 -0.86537,-0.85084 -1.71533,-1.75391 -2.30835,-2.81981 -0.52158,-1.0943 -0.99597,-2.23763 -1.14547,-3.45007 -0.29403,-1.97518 -0.26099,-3.91128 0.11571,-5.88395 0.44232,-2.88084 1.00109,-5.76488 1.99233,-8.51306 1.33366,-3.31318 2.67737,-6.64357 4.6669,-9.63082 1.41233,-2.17254 2.79434,-4.51241 4.82514,-6.16368 1.68925,-1.27964 3.37569,-2.55505 5.04514,-3.86099 3.69343,-2.96088 8.01984,-6.69902 12.93063,-6.29219 1.35931,0.40646 2.50726,1.14413 3.39559,2.26599 0.84482,1.15257 1.56471,2.36158 1.72957,3.81592 0.20924,1.40762 0.0916,2.83861 0.008,4.25519 -0.12855,1.16415 -0.29116,2.36001 -1.04773,3.3039 -0.39538,1.01915 -1.0801,2.07638 -1.90711,2.78895 -3.22802,3.75244 -8.193,5.55751 -12.57872,7.74205 -2.00787,0.78903 -4.07453,1.42219 -6.2359,1.60325 0,0 8.50377,-6.3414 8.50377,-6.3414 z"
       inkscape:connector-curvature="0" />
    <path
       style="opacity:1;fill:#000000;fill-opacity:0.94117647;stroke:#000000;stroke-opacity:1"
       id="path6062"
       d="m 392.07827,253.39178 c 2.17378,-0.40166 4.30254,-1.00679 6.25743,-2.0483 -14.7989,8.67772 -8.17609,4.8517 -5.14145,2.60052 1.80306,-1.33755 3.53447,-2.76593 5.28114,-4.17534 2.58767,-2.07074 5.1869,-4.1303 7.4178,-6.59027 2.26976,-2.74506 3.68312,-6.02819 5.18258,-9.22276 1.03679,-2.12867 1.82239,-4.37747 2.37102,-6.67921 0.19626,-1.46591 0.11228,-2.9815 -0.36613,-4.38361 -0.43812,-1.28454 -1.25956,-2.38717 -2.52339,-2.927 0.29182,-0.83073 -2.75348,1.23874 -1.99716,0.81624 8.28118,-4.62613 11.11774,-7.08812 8.11876,-4.53612 -0.8984,1.01467 -1.29582,2.32656 -1.83319,3.54285 -0.45919,1.12078 -0.9712,2.20273 -1.33598,3.35928 -0.40885,1.51877 -0.8825,3.02204 -1.2406,4.55413 -0.22607,1.37922 -0.37309,2.756 -0.67779,4.12171 -0.2778,1.92793 -0.60031,3.85058 -0.8443,5.78387 -0.17711,1.82426 -0.60137,3.60516 -0.81629,5.42538 -0.25833,2.07265 -0.59956,4.12407 -1.07282,6.15771 -0.51731,1.76562 -1.11074,3.51834 -1.77152,5.23704 -0.51945,1.56707 -1.19224,3.06572 -1.93911,4.53509 -1.33608,2.63497 -2.82855,5.18722 -4.53245,7.60029 -2.36678,3.29196 -5.19247,6.20056 -8.04385,9.0676 -2.58376,2.46472 -5.30603,4.77749 -8.07884,7.02531 -1.96533,1.66002 -4.10983,3.07847 -6.22572,4.53318 0,0 -9.85324,3.8486 -9.85324,3.8486 l 0,0 c 2.20349,-1.38843 4.35547,-2.8775 6.3974,-4.4968 2.79196,-2.20148 5.48187,-4.52643 8.11255,-6.91817 2.86412,-2.80748 5.74234,-5.62866 8.08441,-8.90181 1.73266,-2.32008 3.24647,-4.80823 4.51756,-7.41124 0.72935,-1.44262 1.47449,-2.88179 1.95427,-4.43091 0.67192,-1.68148 1.26224,-3.38794 1.83983,-5.10301 0.47829,-2.00242 0.95271,-3.98741 1.15242,-6.04434 0.16101,-1.84056 0.54515,-3.62919 0.81416,-5.44873 0.23533,-1.94687 0.58557,-3.87548 0.76297,-5.82828 0.23802,-1.38486 0.61063,-2.72834 0.68032,-4.14366 0.31066,-1.57081 0.83862,-3.07558 1.19159,-4.63567 0.18654,-0.60948 0.30755,-1.24853 0.5475,-1.8401 0.90147,-2.22241 -0.41271,1.13412 0.52653,-0.99481 0.0883,-0.20025 0.13569,-0.41618 0.20353,-0.62427 0.55202,-1.29132 1.04738,-2.59765 1.6984,-3.84668 2.45817,-3.61372 0.36343,-0.70523 9.93378,-6.26004 0.79866,-0.46356 1.82068,-0.27437 2.60988,0.0593 1.35016,0.874 2.3947,2.03713 2.90854,3.58867 0.59867,1.57764 0.71618,3.25232 0.61725,4.93271 -0.5144,2.39128 -1.30946,4.74022 -2.36695,6.94371 -1.60005,3.18591 -2.90908,6.5394 -5.01519,9.44622 -2.16028,2.63365 -4.85082,4.71501 -7.5033,6.83023 -5.71573,4.59585 -11.03788,9.0198 -17.98068,11.99553 -2.09049,0.88743 -4.27531,1.49671 -6.52544,1.82737 0,0 8.50377,-6.3414 8.50377,-6.3414 z"
       inkscape:connector-curvature="0" />
    <path
       style="opacity:1;fill:#000000;fill-opacity:0.94117647;stroke:#000000;stroke-opacity:1"
       id="path6066"
       d="m 396.97264,253.92428 c 1.29397,-1.45208 2.79518,-2.70076 4.22911,-4.01026 0.53176,-0.38015 1.02163,-0.86892 1.58898,-1.19997 3.19272,-1.86297 6.4249,-3.65792 9.6126,-5.52947 4.24244,-2.49082 -29.33312,16.906 0.93465,-0.56982 0.9886,-0.39514 1.90115,-0.94371 2.85809,-1.41541 1.21492,-0.36731 2.39457,-0.78777 3.65071,-1.01036 1.34053,-0.307 2.57441,-0.88405 3.88323,-1.2784 1.1762,-0.72896 2.6046,-0.67822 3.85358,-1.1587 1.15464,-0.53236 2.47171,-0.36109 3.64418,-0.76849 0.1845,-0.0554 0.36899,-0.11086 0.55349,-0.16629 0,0 -8.42725,6.46957 -8.42725,6.46957 l 0,0 c -0.19082,0.0461 -0.38163,0.0921 -0.57245,0.13821 -1.22635,0.16923 -2.43477,0.39259 -3.60548,0.80974 -1.31835,0.27685 -2.585,0.67106 -3.82875,1.19187 -1.289,0.48045 -2.60545,0.86848 -3.94607,1.18125 -1.19389,0.31419 -2.3949,0.68868 -3.49701,1.24807 -0.92754,0.5121 -1.91382,0.91559 -2.83704,1.43768 22.6237,-13.10751 -0.50898,0.29895 -0.95105,0.53746 -2.9074,1.56865 5.70808,-3.32754 8.56392,-4.98822 0.17505,-0.10179 -0.35581,0.19514 -0.52152,0.31152 -1.32823,0.93287 0.34789,-0.086 -1.14118,0.78176 -1.49089,1.19956 -2.86354,2.55234 -4.27846,3.83881 0,0 -9.76628,4.14945 -9.76628,4.14945 z"
       inkscape:connector-curvature="0" />
    <path
       style="opacity:1;fill:#000000;fill-opacity:0.94117647;stroke:#000000;stroke-opacity:1"
       id="path6068"
       d="m 448.78839,241.5151 c -1.01773,1.68971 -2.2907,3.21001 -3.23335,4.94375 -0.50914,1.19747 -1.0327,2.38498 -1.31316,3.65905 -0.15183,1.43111 -0.31433,2.85224 -0.53923,4.2751 -0.27178,1.6928 -0.34667,3.40581 -0.39096,5.11683 0.0586,1.40312 -0.29329,2.76575 -0.50189,4.14163 -0.25344,1.43866 -0.64517,2.84637 -1.13695,4.22054 -0.5767,1.61529 -1.44871,3.09706 -2.35428,4.54534 -1.52836,2.23447 -3.00388,4.50169 -4.64608,6.65549 -1.66369,2.07285 -3.94019,3.52866 -6.12099,5.00024 0,0 -9.77222,3.81332 -9.77222,3.81332 l 0,0 c 2.17776,-1.3782 4.39848,-2.81399 6.19286,-4.67728 1.75956,-2.03784 3.16583,-4.32608 4.68963,-6.53693 0.88592,-1.39487 1.79667,-2.80485 2.39353,-4.35026 0.56701,-1.28074 0.88832,-2.626 1.23317,-3.97924 0.16268,-1.3597 0.56776,-2.68271 0.58275,-4.05196 0.0409,-1.74755 0.0822,-3.5003 0.32864,-5.23357 0.20542,-1.43129 0.46226,-2.83991 0.49806,-4.28952 0.20281,-1.39312 0.69102,-2.6428 1.21689,-3.93874 0.8105,-1.82462 2.09526,-3.33469 3.1847,-4.99485 0,0 9.68888,-4.31894 9.68888,-4.31894 z"
       inkscape:connector-curvature="0" />
    <path
       style="opacity:1;fill:#000000;fill-opacity:0.94117647;stroke:#000000;stroke-opacity:1"
       id="path6070"
       d="m 439.87841,240.34942 c 1.72296,-1.35907 3.28455,-2.90185 4.83271,-4.45242 0.9756,-0.84321 1.59196,-1.95341 2.14476,-3.09685 0.34677,-0.92105 0.0705,-1.89629 -0.32753,-2.75333 -0.32151,-0.44935 -0.83761,-0.80116 -1.41646,-0.58224 -0.12296,0.0465 -0.43717,0.29108 -0.32197,0.22775 2.95776,-1.62622 5.90119,-3.27837 8.85179,-4.91755 -0.83255,0.49704 -1.14478,1.67305 -1.41488,2.56481 -0.2149,1.17237 -0.61561,2.29282 -0.83679,3.46339 -0.008,0.15663 -0.0169,0.31325 -0.0253,0.46987 0,0 -9.4583,4.84727 -9.4583,4.84727 l 0,0 c -0.0172,-0.2155 -0.0343,-0.431 -0.0515,-0.6465 0.15965,-1.21764 0.53824,-2.35492 0.79358,-3.54195 0.22732,-1.15078 0.7023,-2.1788 1.07445,-3.28131 3.19061,-1.79712 8.79262,-8.34555 12.04749,-3.84016 0.53354,1.10872 0.8661,2.28978 0.73011,3.53152 -0.42675,1.27859 -1.11304,2.52842 -2.01044,3.5314 -1.61784,1.47131 -3.06512,3.12628 -4.77182,4.50461 0,0 -9.83991,3.97169 -9.83991,3.97169 z"
       inkscape:connector-curvature="0" />
    <path
       style="opacity:1;fill:#000000;fill-opacity:0.94117647;stroke:#000000;stroke-opacity:1"
       id="path6072"
       d="m 480.25033,237.30907 c -1.15226,3.69487 -2.59619,7.27596 -4.07824,10.84716 -1.40438,3.60238 -3.04539,7.10256 -4.58874,10.64565 -0.75712,1.8108 -1.59181,3.60022 -2.15348,5.48429 -0.47218,1.39826 -0.76779,2.84329 -1.16023,4.26341 -0.27848,1.29358 -0.63784,2.55853 -1.06189,3.81144 -0.37315,0.87198 -0.76674,1.75803 -0.99938,2.6801 1.13143,3.51789 0.18567,0.33796 -9.56678,4.2177 -0.10242,0.0408 0.15111,-0.16278 0.2075,-0.25749 0.079,-0.13276 0.13061,-0.28007 0.19591,-0.4201 0,0 9.73644,-4.3129 9.73644,-4.3129 l 0,0 c -0.0804,0.10163 -0.18598,0.18764 -0.24114,0.30488 -0.0647,0.13748 0.0261,0.37553 -0.11041,0.44225 -9.78636,4.78337 -12.45859,1.80541 -9.85655,4.62284 0.26961,-0.96646 0.58189,-1.91826 0.97517,-2.84776 0.62998,-1.11932 0.85447,-2.44767 1.14887,-3.68494 0.39413,-1.42122 0.67717,-2.86708 1.16934,-4.26041 0.48499,-1.98351 1.38135,-3.8212 2.18938,-5.68883 1.65194,-3.51088 3.24041,-7.06134 4.70006,-10.65681 1.43406,-3.51275 2.97269,-7.00012 3.90944,-10.68914 0,0 9.58473,-4.50134 9.58473,-4.50134 z"
       inkscape:connector-curvature="0" />
    <path
       style="opacity:1;fill:#000000;fill-opacity:0.94117647;stroke:#000000;stroke-opacity:1"
       id="path6074"
       d="m 466.25835,253.92429 c 1.71939,-1.97434 3.60011,-3.78844 5.57319,-5.50563 4.26386,-3.14142 8.85855,-6.72377 13.88305,-8.20739 1.50304,-0.37996 2.28823,0.12098 3.36235,1.06926 0.74355,0.87746 1.23697,1.92021 1.71248,2.95839 0.61011,1.49923 0.83391,3.10303 0.97847,4.70323 0.10786,1.48188 0.10716,2.96863 0.10913,4.45356 0.0984,1.5219 -0.13185,2.98634 -0.57276,4.43687 -0.37049,1.30502 -0.91143,2.55405 -1.43953,3.80156 -0.55067,1.25082 -1.08725,2.50644 -1.63227,3.75951 -0.45956,1.22586 -0.78529,2.49756 -1.26593,3.71498 -0.41668,1.21326 -0.92342,2.38022 -1.55316,3.4967 -0.3018,0.46416 -0.62766,0.90286 -0.98919,1.32123 0,0 -9.77792,4.17536 -9.77792,4.17536 l 0,0 c 0.33273,-0.44503 0.75283,-0.77016 1.02336,-1.26074 0.8158,-0.92756 1.27407,-2.11476 1.6584,-3.27666 0.49548,-1.21202 0.93214,-2.43845 1.27145,-3.70674 0.45451,-1.29313 1.10332,-2.51075 1.63362,-3.77386 0.48342,-1.24997 1.08629,-2.45545 1.48478,-3.73106 0.44692,-1.35915 0.85774,-2.68724 0.7117,-4.14364 0.002,-1.46074 0.0115,-2.92263 -0.0633,-4.38196 -0.10185,-1.47808 -0.25305,-2.97145 -0.81959,-4.35585 -0.42734,-0.88918 -0.81572,-1.82805 -1.49556,-2.55901 -0.83494,-0.68022 -1.71221,-0.57304 -2.6872,-0.16397 -3.56181,1.65327 -0.78567,0.38791 7.769,-4.58964 0.24599,-0.14312 -0.49936,0.27394 -0.73977,0.42625 -0.95932,0.60775 -1.92687,1.20762 -2.83416,1.89261 -1.96102,1.64937 -3.8411,3.37184 -5.53436,5.29719 0,0 -9.76628,4.14945 -9.76628,4.14945 z"
       inkscape:connector-curvature="0" />
    <path
       style="opacity:1;fill:#000000;fill-opacity:0.94117647;stroke:#000000;stroke-opacity:1"
       id="path6076"
       d="m 527.08791,246.90472 c -2.91643,-0.0889 -5.79132,0.43992 -8.57079,1.28154 -0.58686,0.24549 -1.18283,0.47025 -1.76058,0.73647 -0.61752,0.28456 -1.22606,0.58957 -1.82312,0.91489 -0.66702,0.36343 -2.6321,1.51754 -1.96718,1.15029 2.28857,-1.26399 4.47807,-2.7167 6.83851,-3.84077 0.80842,-0.38498 -1.45053,1.05126 -2.15128,1.60867 -0.71645,0.56989 -1.39898,1.18116 -2.09847,1.77173 -2.86397,2.35719 -5.27664,5.13972 -7.38678,8.17297 -0.8871,1.23117 -1.21047,2.61489 -1.32094,4.09655 -0.17213,1.31855 0.31394,2.48524 0.75865,3.68732 0.38801,0.97417 1.07795,1.73362 1.72098,2.5369 0.77901,0.81153 1.67117,1.38434 2.81994,1.33841 1.34309,-0.0801 2.54445,-0.73362 3.65467,-1.44886 3.4438,-1.75221 1.80207,-0.93012 -7.83474,4.54459 -0.23674,0.13449 0.46338,-0.2869 0.68444,-0.44587 0.72506,-0.52142 1.40407,-1.1178 2.07251,-1.70796 3.09463,-3.13623 6.15363,-6.30466 9.10835,-9.57344 4.34125,-5.31405 7.70649,-11.31975 11.15431,-17.22669 3.59297,-6.18663 6.59412,-12.68619 9.38409,-19.26608 1.59354,-3.92155 3.24964,-7.82907 4.52136,-11.87049 0.81861,-4.09587 -1.26934,-0.60664 9.34514,-4.99101 0.33445,-0.13815 -0.56995,0.44999 -0.81907,0.71244 -0.94933,1.00013 -1.69353,2.08089 -2.51568,3.18721 -3.44554,4.83128 -6.78202,9.7385 -9.9511,14.75545 -3.27807,5.29263 -5.63744,11.03064 -7.74515,16.86425 -1.37969,4.06725 -2.40748,8.26718 -2.8179,12.54591 -0.17142,1.80986 -0.0123,3.62168 0.62689,5.32365 0.59802,1.14637 1.77794,1.6111 2.93975,2.00455 1.71365,0.57578 3.42061,0.1544 5.12279,-0.23205 1.17206,-0.21971 2.31021,-0.60872 3.40095,-1.08461 0,0 -8.32657,6.5298 -8.32657,6.5298 l 0,0 c -1.14384,0.38419 -2.29893,0.73413 -3.49179,0.93465 -1.85834,0.34186 -3.70195,0.50303 -5.49437,-0.23972 -1.41136,-0.59551 -2.73916,-1.31695 -3.43079,-2.75785 -0.69381,-1.86171 -0.92094,-3.8282 -0.71956,-5.81255 0.40241,-4.39695 1.51492,-8.69891 2.90697,-12.88185 2.14196,-5.87132 4.38738,-11.70956 7.66238,-17.0661 3.13253,-5.00771 6.45063,-9.89205 9.80018,-14.75656 2.61235,-3.79902 -0.0331,-0.0108 2.31404,-3.22246 0.22068,-0.30196 0.30724,-0.7479 0.63759,-0.92323 4.40563,-2.33818 10.9706,-8.57476 10.07475,-3.37828 -1.31459,4.13036 -3.15941,8.07546 -4.77044,12.09371 -2.79819,6.62582 -5.82779,13.16635 -9.40363,19.41335 -3.40452,5.94077 -6.7602,11.94553 -10.96395,17.37161 -2.85919,3.23748 -5.84675,6.3505 -8.78299,9.51718 -3.54088,3.77984 -8.49168,5.79526 -12.94059,8.30578 -1.2818,0.62649 -2.61097,1.12591 -4.06761,0.91393 -1.29864,-0.33324 -2.40406,-0.97706 -3.28051,-2.00935 -0.72732,-0.88676 -1.43552,-1.77923 -1.88133,-2.84996 -0.47642,-1.32288 -1.0714,-2.62393 -0.95059,-4.07096 0.0572,-1.63205 0.24326,-3.22985 1.1393,-4.64593 2.10966,-3.16693 4.60455,-6.05301 7.51045,-8.52182 0.65174,-0.57175 3.37894,-3.01337 4.14501,-3.49333 5.22532,-3.27383 10.72437,-6.91881 16.62046,-9.07474 2.90515,-0.75678 5.86305,-1.20279 8.875,-1.14917 0,0 -8.57196,6.22789 -8.57196,6.22789 z"
       inkscape:connector-curvature="0" />
    <path
       style="opacity:1;fill:#000000;fill-opacity:0.94117647;stroke:#000000;stroke-opacity:1"
       id="path6078"
       d="m 555.07179,261.8553 c 3.89691,-0.75472 7.73882,-1.79506 11.50734,-3.03704 0.91867,-0.36853 2.04102,-0.79281 2.92894,-1.247 0.44825,-0.22929 1.74854,-0.99935 1.31003,-0.75193 -13.74264,7.75381 -8.9617,5.39707 -6.02968,3.10727 1.07214,-0.87861 1.67293,-1.88334 1.60359,-3.26165 -0.20032,-0.88477 -0.65308,-1.70626 -1.42806,-2.1976 -0.75397,-0.69399 -1.73562,-1.0966 -2.75795,-0.91396 -3.21223,0.94243 -9.8473,5.21117 6.66058,-4.02463 0.37182,-0.20802 -0.72715,0.44454 -1.08268,0.67933 -0.38635,0.25514 -0.76159,0.52671 -1.14238,0.79007 -1.91049,1.34589 -3.71779,2.83829 -5.10527,4.72999 -0.98752,1.20409 -1.41194,2.624 -1.84798,4.08471 -0.42562,1.40069 -0.56409,2.85603 -0.64188,4.31043 -0.207,1.50688 0.36504,2.53738 1.32584,3.6232 1.04289,1.03286 2.39926,1.30865 3.8028,1.45676 1.60925,0.0524 3.20798,-0.32782 4.80993,-0.49777 0,0 -8.49778,6.32339 -8.49778,6.32339 l 0,0 c -1.6513,0.20354 -3.31704,0.54664 -4.98159,0.27858 -1.59792,-0.30476 -3.07024,-0.86088 -4.20201,-2.08743 -1.08384,-1.25506 -1.90136,-2.59452 -1.72556,-4.32578 0.0559,-1.52476 0.1528,-3.05567 0.54111,-4.53843 0.42196,-1.52439 0.70543,-3.13077 1.73469,-4.3845 1.24229,-2.09337 3.06906,-3.68849 5.02113,-5.11625 4.2205,-3.10341 8.63248,-7.16671 13.94426,-7.53422 1.18435,0.20896 2.24699,0.64127 3.13932,1.47233 0.91278,0.79459 1.53593,1.79272 1.85805,2.96546 0.19464,1.62745 -0.0308,2.99336 -1.24471,4.21421 -4.6262,4.16708 -10.42149,7.06343 -16.23504,9.22864 -3.85723,1.16971 -7.75677,2.20022 -11.6998,3.04015 0,0 8.43476,-6.38633 8.43476,-6.38633 z"
       inkscape:connector-curvature="0" />
    <path
       style="opacity:1;fill:#000000;fill-opacity:0.94117647;stroke:#000000;stroke-opacity:1"
       id="path6080"
       d="m 600.06459,246.33263 c -0.3193,0.11135 -0.64663,0.20192 -0.95791,0.33406 -1.51966,0.64509 -3.39726,1.8055 -2.91921,1.53825 11.81197,-6.60335 7.94025,-4.73292 4.36247,-1.84062 -2.08944,1.71121 -3.74985,3.77193 -5.11222,6.08423 -0.80378,1.20125 -1.19655,2.52219 -1.36565,3.93997 -0.21399,1.24179 0.084,2.42548 0.3121,3.63544 0.48531,1.92668 0.92337,3.86422 1.27462,5.82012 0.37846,1.75504 0.88753,3.48626 0.99318,5.28537 0.005,1.22153 -0.26946,2.37422 -0.90281,3.41743 -0.51907,0.94978 -1.33119,1.59261 -2.16671,2.23762 -3.3621,-0.67638 -6.63538,5.89461 -10.72677,5.57435 0,0 8.5422,-6.33968 8.5422,-6.33968 l 0,0 c 3.34217,-1.17026 7.77445,-5.29189 -7.72113,4.63476 0.8862,-0.48968 1.67321,-1.05345 2.34359,-1.81199 0.61038,-0.96419 1.16577,-1.67132 1.17866,-2.89703 0.12766,-1.74851 -0.54449,-3.45365 -0.85004,-5.15591 -0.32011,-1.95283 -0.76333,-3.87903 -1.33777,-5.77279 -0.23161,-1.297 -0.62397,-2.56654 -0.43653,-3.90018 0.10954,-1.54642 0.35896,-3.05578 1.20545,-4.39297 0.73994,-1.18439 0.36759,-0.55503 1.10793,-1.89345 1.07688,-1.72829 2.52657,-3.16873 3.99208,-4.5646 4.45263,-3.79125 7.15743,-4.95134 13.43257,-8.60054 0.91869,-0.53425 2.12837,-1.10344 3.15564,-1.42966 0.35795,-0.11367 0.73335,-0.16239 1.10003,-0.24358 0,0 -8.50377,6.3414 -8.50377,6.3414 z"
       inkscape:connector-curvature="0" />
    <path
       style="opacity:1;fill:#000000;fill-opacity:0.94117647;stroke:#000000;stroke-opacity:1"
       id="path6084"
       d="m 590.03271,252.42124 c 33.62933,-19.31757 -5.7329,3.23712 3.19761,-1.94321 3.33195,-1.93276 6.68697,-3.82564 10.016,-5.76343 2.71069,-1.57786 -5.43718,3.12845 -8.16094,4.68363 -0.25678,0.14661 0.50651,-0.3052 0.75977,-0.4578 26.64733,-15.20178 0.88208,-0.46021 1.31367,-0.70732 3.26947,-1.87197 6.5303,-3.75908 9.80804,-5.61652 0.88182,-0.49971 1.84609,-0.85793 2.7547,-1.30627 1.59353,-0.81797 3.33231,-1.08226 5.07652,-0.67208 1.32132,0.53776 2.1939,1.71618 2.82595,2.95145 0.44008,1.11636 0.24595,2.17301 -0.39445,3.15293 -0.64902,0.98238 -1.45949,1.86173 -2.43157,2.52773 -3.40405,2.54468 -0.30108,0.25344 -10.05205,5.83842 -2.88295,1.65124 11.4872,-6.68054 8.64783,-4.95545 -3.14529,1.91095 -6.3597,3.70627 -9.56587,5.51322 -1.8593,1.04787 0.69504,-0.68344 -0.96414,0.48053 -0.46461,0.35561 -1.06463,0.34683 -1.58527,0.53728 -0.52651,0.1926 -0.97492,0.46088 -1.52758,0.61681 -1.17624,0.21264 -2.37529,0.20777 -3.38599,0.90976 2.93346,-1.68316 5.88792,-3.33026 8.80039,-5.04948 0.26586,-0.15694 -0.38189,0.19906 -0.31382,-0.31719 0.009,-0.0679 0.0884,0.10687 0.14444,0.14629 0.17499,0.12307 0.38443,0.16885 0.58371,0.23248 1.18443,0.31329 2.33671,0.72368 3.47665,1.17515 1.11786,0.33915 2.14819,0.96403 3.00805,1.7501 0.89175,0.60776 1.49709,1.46541 2.1474,2.30078 0.86831,1.22117 1.46879,2.61776 1.97498,4.02191 0.48074,1.44439 0.596,2.96265 0.66262,4.47233 0.0241,1.45652 0.082,2.91678 -0.0304,4.37024 -0.0958,1.01359 -0.41651,1.97634 -0.77429,2.92184 0,0 -9.6525,4.39766 -9.6525,4.39766 l 0,0 c 0.46467,-0.80672 0.77334,-1.69987 0.92127,-2.62156 0.24442,-1.38875 0.0742,-2.81527 0.10604,-4.22022 -0.0397,-1.40953 -0.0976,-2.83288 -0.50678,-4.19321 -0.44557,-1.30568 -1.00247,-2.60968 -1.84217,-3.71254 -0.59362,-0.78865 -1.21558,-1.52889 -2.02974,-2.10915 -0.84289,-0.65686 -1.78167,-1.14151 -2.80269,-1.46392 -1.16227,-0.45576 -2.37762,-0.75144 -3.53666,-1.21621 -5.06769,-2.94781 4.70113,-7.30141 7.98224,-7.50535 1.14339,-0.32897 2.32852,-0.42631 3.45413,-0.81701 1.01108,-0.41286 2.06417,-0.72689 2.99775,-1.30749 0.32897,-0.14389 1.27727,-0.6554 0.96677,-0.47509 -2.87286,1.66825 -11.53398,6.59817 -8.62536,4.99306 32.2078,-17.77375 -6.21453,2.82755 1.44697,-0.78361 0.86815,-0.7183 1.90862,-1.21942 2.55849,-2.19414 0.47634,-0.69826 1.14794,-1.21638 0.91206,-2.15787 -0.48048,-0.97233 -1.14313,-1.90471 -2.27324,-2.10482 -1.66984,-0.0899 -3.1833,0.34378 -4.65078,1.147 -0.55818,0.26281 -1.31351,0.61321 -1.86454,0.89334 -0.29773,0.15136 -1.17368,0.63781 -0.88533,0.46926 2.7723,-1.62048 11.15783,-6.36142 8.33783,-4.82545 -2.20024,1.19841 -21.80044,12.58888 -1.34131,0.71753 -5.94258,3.36032 -19.82496,11.44017 -2.67405,1.53433 0.35951,-0.20764 -0.70726,0.43508 -1.06513,0.64551 -3.35482,1.97267 -6.75196,3.87445 -10.07285,5.90372 -2.63032,1.60731 5.33383,-3.09168 8.00074,-4.63752 0,0 -9.87308,3.82962 -9.87308,3.82962 z"
       inkscape:connector-curvature="0" />
  </g>
</svg>
